<svg id="Layer_2" data-name="Layer 2" xmlns="http://www.w3.org/2000/svg" viewBox="0 0 612 792"><defs><style>.cls-1{fill:#6a6f5e;}.cls-2{fill:#d0a994;}</style></defs><path class="cls-1" d="M258,521.52c-2.05,17.94-7.51,28.67-10.57,33.47a97.12,97.12,0,0,0-6.92,12.72c-19.14,43-2.47,64.26,8.33,72.76a25,25,0,0,0,12.29,5.18,123,123,0,0,1,36.12,10.78,58.54,58.54,0,0,0,23.3,5.87,75.82,75.82,0,0,0,23.43-3,129.09,129.09,0,0,1,25.52-4.48c45.54-3.72,89-48.42,89-48.42-28.76,12.06-43.43,3.24-50.13-4.3a25.18,25.18,0,0,1-5.58-10.86c-6.83-28.33-24.79-38.76-34.76-42.44a63.13,63.13,0,0,1-19.45-11.42,70.86,70.86,0,0,1-13.2-14.46,71.7,71.7,0,0,0-12.12-14l-.92-.82a123.91,123.91,0,0,0-28.95-19.43l-14-6.75Z"/><path class="cls-1" d="M288.74,476.1l64.85,43.82,44,29.74a146,146,0,0,0,28.57,15l32.11,12.55a17.88,17.88,0,0,0,22.81-9.28l30.31-65.25L492,512.47a34.05,34.05,0,0,1-14.06,3.73,40.21,40.21,0,0,1-16.19-2.8l-51.16-20.25a89,89,0,0,1-18.54-10L371.89,469a117.09,117.09,0,0,0-25.72-13.67l-38.73-14.74Z"/><path class="cls-1" d="M313.82,431.13l59,25.38a104.44,104.44,0,0,1,28.3,18l3,2.64a37.69,37.69,0,0,0,19.36,9.11l59.41,9.13a8.29,8.29,0,0,0,8.93-5L514.73,435l-81.62,3.17a72.42,72.42,0,0,1-28.37-4.6l-18.95-7.15L451,422.89l45.65-4.15a13.1,13.1,0,0,0,11.9-13.87l-3.4-54.9-59.48,17.16a86.64,86.64,0,0,1-10.82,2.39l-33.72,5.19a88.38,88.38,0,0,1-42.25-3.78l-10.5-3.62Z"/><path class="cls-1" d="M351.7,358.1l20.56,5.08a52.52,52.52,0,0,0,25.68-.14L446,350.6a54.58,54.58,0,0,0,22.58-12l21-18.64a24.15,24.15,0,0,0,6.8-26l-9-26A34.86,34.86,0,0,0,478.26,254l-5.82-5.41a89.31,89.31,0,0,1-27-49.19l-1.78-9.59-34,1.73a53.09,53.09,0,0,1-37.33-12.77l-2.56-2.21a7.68,7.68,0,0,0-12.43,3.81l-7.49,27.73a151.9,151.9,0,0,0-4.2,57.57l3.23,27.11A19.64,19.64,0,0,1,345,307h0a22.4,22.4,0,0,0-4.59,14.73l1.47,29.76L394.68,269Z"/><path class="cls-1" d="M241.06,520.14C184.52,607,134.71,575.71,129.35,572l-1.29-.87C71.32,534,63.17,479.63,63.17,479.63L73.53,487a74.4,74.4,0,0,0,45,13.8l17.75-.44,41-1.58a58.91,58.91,0,0,0,6.22-.57l9.88-1.44a69.84,69.84,0,0,1,30.74,2.4l25.67,8Z"/><path class="cls-1" d="M254.89,499.67l-65.26-15.2A61.45,61.45,0,0,0,172.32,483l-39.19,2.15a70.45,70.45,0,0,1-7.69,0l-21.85-1.18a27.11,27.11,0,0,1-25.21-22.16l-2.71-14.69q-.56-2.94-1.32-5.84l-11.59-43.3L83.42,412.8a43.8,43.8,0,0,0,12.1,6.13L180,446.32a3.32,3.32,0,0,0,4.1-4.41h0a18.14,18.14,0,0,0-11-10.31L122.3,414.36a81.2,81.2,0,0,1-8.39-3.38l-16.58-7.81a65.63,65.63,0,0,1-8.71-5h0a11.9,11.9,0,0,1-4.91-12.67l8.18-33.82a120.88,120.88,0,0,1,8.48-23.8L106.09,316l16.63,26.78a43.27,43.27,0,0,0,8.3,9.75l28.71,25a66.58,66.58,0,0,0,6,4.67l42.77,29.41a34.25,34.25,0,0,0,4.69,2.72l3.8,1.83a60.16,60.16,0,0,1,15.26,10.49l42.18,39.86Z"/><path class="cls-1" d="M279.41,456.61l-45.94-40.33a60.14,60.14,0,0,1-4.36-4.24l-15.45-16.63a84.64,84.64,0,0,0-11.74-10.48l-66.09-48.76q-1.4-1-2.73-2.13l-4.4-3.66a20.88,20.88,0,0,1-5.2-25.75l32.86-63,16.87,40a98,98,0,0,0,20,30.15l32.48,33.47,33.11,36.88a64.26,64.26,0,0,0,10.76,9.55l2.63,1.85a69.25,69.25,0,0,1,19.6,21.12l6,9.95Z"/><path class="cls-1" d="M304,415.3l-29.2-39.76a76.26,76.26,0,0,1-6.08-9.71L252,334.11a110.79,110.79,0,0,0-10.4-16.18L208,274.5a74.92,74.92,0,0,1-12-22.54l-1.66-5.06a29.58,29.58,0,0,1,11.22-33.5h0a29.26,29.26,0,0,1,12.69-5l31-4.32,46.79-24.59a38.94,38.94,0,0,1,10-3.61l33.52-7.08-1,1a56.06,56.06,0,0,0-16.44,48.42l7.47,50.7c.24,1.59.41,3.18.53,4.78L333,311.08l1.26,50.74Z"/><path class="cls-2" d="M308.92,610l10.94,1.74A13.26,13.26,0,0,0,334.94,596l-.42-2a13.17,13.17,0,0,0-4-7.09L304.23,562.6a13.31,13.31,0,0,0-8.8-3.51l-1.7,0a13.26,13.26,0,0,0-13.15,16.07l.63,2.94a13.31,13.31,0,0,0,2.5,5.34L300.54,605A13.22,13.22,0,0,0,308.92,610Z"/><path class="cls-2" d="M432.08,542.23l17.28,4a4.48,4.48,0,0,0,5.45-4.9l-.21-1.74a4.49,4.49,0,0,0-2.91-3.66l-30.15-11.07a4.61,4.61,0,0,0-1.56-.27h-1.24a4.48,4.48,0,0,0-2.32,8.29l14.32,8.8A4.74,4.74,0,0,0,432.08,542.23Z"/><path class="cls-2" d="M352,486.72l5.65.68a2.39,2.39,0,0,0,1.77-4.25l-9.54-7.61a2.38,2.38,0,0,0-3,0l-2.09,1.7a2.4,2.4,0,0,0-.06,3.65l6,5.23A2.38,2.38,0,0,0,352,486.72Z"/><path class="cls-2" d="M366.74,403.43l20.9,2.58a4.34,4.34,0,0,0,4.19-6.63l-.46-.71a4.28,4.28,0,0,0-2.44-1.83l-17.24-5a4.35,4.35,0,0,0-4.25,1.06L364.23,396A4.33,4.33,0,0,0,366.74,403.43Z"/><path class="cls-2" d="M426.34,314.22,442.87,306a6.87,6.87,0,0,0,2.29-10.45l-5.39-6.72a6.86,6.86,0,0,0-7.22-2.32l-7.76,2.17a6.86,6.86,0,0,0-4.8,4.87l-3.37,12.82A6.87,6.87,0,0,0,426.34,314.22Z"/><path class="cls-2" d="M389.08,233.43l7.61-5.75a6.07,6.07,0,0,0-.26-9.87l-5.73-3.87a6.06,6.06,0,0,0-7.91,1l-3.19,3.55a6.07,6.07,0,0,0-1.41,5.32l1.3,6.07A6.07,6.07,0,0,0,389.08,233.43Z"/><path class="cls-2" d="M271.78,230.9l3-1.56a5,5,0,0,0,.93-8.34l-3.29-2.77a5,5,0,0,0-8.29,4.19l.28,4.32A5,5,0,0,0,271.78,230.9Z"/><path class="cls-2" d="M179.36,340.65l16,11.83a4.56,4.56,0,0,0,7.2-2.82h0a4.56,4.56,0,0,0-1.48-4.29l-14.43-12.59a4.58,4.58,0,0,0-5-.66l-1.55.77A4.56,4.56,0,0,0,179.36,340.65Z"/><path class="cls-2" d="M115.56,383.74h0a4.62,4.62,0,0,0,4.72-7.51l-5.76-6.45a4.62,4.62,0,0,0-6.4-.48l-5,4.13a4.62,4.62,0,0,0,2,8.07l10.11,2.16Z"/><path class="cls-2" d="M147.68,466.2l-31.87-.53a13.41,13.41,0,0,1-13-11.38l-.21-1.3a5.46,5.46,0,0,1,3.15-5.8l3.45-1.55a23.61,23.61,0,0,1,19.83.19l21.11,10A5.45,5.45,0,0,1,147.68,466.2Z"/><path class="cls-2" d="M161.4,550.74l-20.32,3.61a7.24,7.24,0,0,1-6.77-2.42l-6.66-7.79a7.25,7.25,0,0,1,3.43-11.66l9.07-2.7a7.23,7.23,0,0,1,4.66.18l17.92,6.87a7.24,7.24,0,0,1,4.37,4.78h0A7.25,7.25,0,0,1,161.4,550.74Z"/><path class="cls-2" d="M196.74,524.67l6.84-2a3.55,3.55,0,0,0,1-6.34l-1.79-1.21a3.55,3.55,0,0,0-3.13-.42l-5.53,1.87a3.55,3.55,0,0,0-2.21,4.55l.49,1.37A3.55,3.55,0,0,0,196.74,524.67Z"/><path class="cls-2" d="M301.32,347.17l-11.56-7.81a8.18,8.18,0,0,1-3.5-5.48l-2.41-15.11a56,56,0,0,0-4.17-14l-10.26-23.06a9.09,9.09,0,0,1,7-12.7h.09a10.18,10.18,0,0,1,10.76,6l11.37,25.8c.25.57.47,1.15.68,1.74l8.91,25.87a12.75,12.75,0,0,1-.27,9.06l-3.67,8.87A2,2,0,0,1,301.32,347.17Z"/></svg>