<svg viewBox="0 0 256 256" xmlns="http://www.w3.org/2000/svg"><path d="m255.9 128a128 128 0 0 1 -156.69 124.65 127.94 127.94 0 0 1 -99.21-124.65 128 128 0 0 1 255.9 0z" fill="#103554"/><path d="m138.69 41.44a2.31 2.31 0 0 0 -3.58 2.63c2.58 6.83 3.42 16.53-6.75 24.59a33 33 0 0 1 -5.86 3.61c-8.59 4.26-25.39 21.47 2.66 50.34a2.29 2.29 0 0 0 2.62.47c10.45-4.88 70.61-36.08 10.91-81.64z" fill="#fff"/><path d="m142 164.19-1.22-.4a2.31 2.31 0 0 1 -1.39-1.24l-5.39-11.94a2.32 2.32 0 0 1 -.09-1.68l3.08-9.45a2.31 2.31 0 0 0 -1.49-2.91l-30.65-10a2.33 2.33 0 0 0 -2.89 1.42l-3.23 9.05a2.39 2.39 0 0 1 -1 1.18l-12 7.52a2.32 2.32 0 0 1 -1.94.24l-1.38-.45a2.29 2.29 0 0 0 -2.91 1.48l-1 3.19a2.3 2.3 0 0 0 1.48 2.9l.23.08a2.31 2.31 0 0 1 1.48 2.91l-15.8 48.59a2.32 2.32 0 0 0 -.11.64l-1 32.46a2.3 2.3 0 0 0 1.18 2.1 126.54 126.54 0 0 0 31.74 12.41 2.3 2.3 0 0 0 2.41-.9l20.26-28.32a2.08 2.08 0 0 0 .32-.63l16-49.19a2.3 2.3 0 0 1 2.9-1.48 2.31 2.31 0 0 0 2.91-1.48l1-3.19a2.31 2.31 0 0 0 -1.5-2.91z" fill="#fff"/><g fill="#103554"><rect height="4.4" rx="2.2" transform="matrix(.30934896 -.95094859 .95094859 .30934896 -116.91 201.6)" width="47.31" x="56.67" y="179.08"/><rect height="4.4" rx="2.2" transform="matrix(.30934896 -.95094859 .95094859 .30934896 -100.74 252.28)" width="47.31" x="99.65" y="193.29"/><rect height="4.4" rx="2.2" transform="matrix(.30934896 -.95094859 .95094859 .30934896 -117.07 247.06)" width="23.96" x="99.56" y="201.92"/><rect height="4.4" rx="2.2" transform="matrix(.30934896 -.95094859 .95094859 .30934896 -109.03 223.31)" width="50.04" x="74.19" y="184.51"/><rect height="4.4" rx="2.2" transform="matrix(.30934896 -.95094859 .95094859 .30934896 -120.24 217.29)" width="34.94" x="71.99" y="189.22"/></g></svg>