<svg id="Layer_1" data-name="Layer 1" xmlns="http://www.w3.org/2000/svg" viewBox="0 0 256 256"><defs><style>.cls-1{fill:#fff;}.cls-2{fill:#32231b;}.cls-3{fill:#feffff;}</style></defs><path class="cls-1" d="M255.9,128A128,128,0,0,1,99.21,252.65,127.94,127.94,0,0,1,0,128a128,128,0,0,1,255.9,0Z"/><path class="cls-2" d="M138.69,41.44a2.31,2.31,0,0,0-3.58,2.63c2.58,6.83,3.42,16.53-6.75,24.59a33,33,0,0,1-5.86,3.61c-8.59,4.26-25.39,21.47,2.66,50.34a2.29,2.29,0,0,0,2.62.47C138.23,118.2,198.39,87,138.69,41.44Z"/><path class="cls-2" d="M142,164.19l-1.22-.4a2.31,2.31,0,0,1-1.39-1.24L134,150.61a2.32,2.32,0,0,1-.09-1.68l3.08-9.45a2.31,2.31,0,0,0-1.49-2.91l-30.65-10a2.33,2.33,0,0,0-2.89,1.42l-3.23,9.05a2.39,2.39,0,0,1-1,1.18l-12,7.52a2.32,2.32,0,0,1-1.94.24l-1.38-.45a2.29,2.29,0,0,0-2.91,1.48l-1,3.19a2.3,2.3,0,0,0,1.48,2.9l.23.08a2.31,2.31,0,0,1,1.48,2.91L65.89,204.68a2.32,2.32,0,0,0-.11.64l-1,32.46a2.3,2.3,0,0,0,1.18,2.1A126.54,126.54,0,0,0,97.7,252.29a2.3,2.3,0,0,0,2.41-.9l20.26-28.32a2.08,2.08,0,0,0,.32-.63l16-49.19a2.3,2.3,0,0,1,2.9-1.48,2.31,2.31,0,0,0,2.91-1.48l1-3.19A2.31,2.31,0,0,0,142,164.19Z"/><rect class="cls-3" x="56.67" y="179.08" width="47.31" height="4.4" rx="2.2" transform="translate(-116.91 201.6) rotate(-71.98)"/><rect class="cls-3" x="99.65" y="193.29" width="47.31" height="4.4" rx="2.2" transform="translate(-100.74 252.28) rotate(-71.98)"/><rect class="cls-3" x="99.56" y="201.92" width="23.96" height="4.4" rx="2.2" transform="translate(-117.07 247.06) rotate(-71.98)"/><rect class="cls-3" x="74.19" y="184.51" width="50.04" height="4.4" rx="2.2" transform="translate(-109.03 223.31) rotate(-71.98)"/><rect class="cls-3" x="71.99" y="189.22" width="34.94" height="4.4" rx="2.2" transform="translate(-120.24 217.29) rotate(-71.98)"/></svg>